<?xml version="1.0" encoding="UTF-8"?>
<svg id="Layer_1" data-name="Layer 1" xmlns="http://www.w3.org/2000/svg" xmlns:xlink="http://www.w3.org/1999/xlink" viewBox="0 0 1920 1920">
  <defs>
    <style>
      .cls-1 {
        fill: url(#linear-gradient);
      }

      .cls-1, .cls-2 {
        stroke-width: 0px;
      }

      .cls-2 {
        fill: #fff;
      }
    </style>
    <linearGradient id="linear-gradient" x1="999.76" y1="544.49" x2="749.35" y2="1112.29" gradientUnits="userSpaceOnUse">
      <stop offset="0" stop-color="#ffc400" stop-opacity="0"/>
      <stop offset=".37" stop-color="#ffc300" stop-opacity="0"/>
      <stop offset=".51" stop-color="#ffc300" stop-opacity=".03"/>
      <stop offset=".6" stop-color="#ffc300" stop-opacity=".08"/>
      <stop offset=".68" stop-color="#ffc300" stop-opacity=".15"/>
      <stop offset=".75" stop-color="#ffc200" stop-opacity=".23"/>
      <stop offset=".8" stop-color="#ffc100" stop-opacity=".34"/>
      <stop offset=".86" stop-color="#ffc100" stop-opacity=".47"/>
      <stop offset=".91" stop-color="#ffc000" stop-opacity=".61"/>
      <stop offset=".95" stop-color="#ffbf00" stop-opacity=".78"/>
      <stop offset=".99" stop-color="#ffbe00" stop-opacity=".96"/>
      <stop offset="1" stop-color="#ffbe00"/>
    </linearGradient>
  </defs>
  <path class="cls-2" d="m1210.33,820.38c-.01-.19-.02-.37-.04-.56-.05-.49-.12-.99-.21-1.49-.02-.09-.02-.17-.04-.26-.12-.58-.28-1.17-.46-1.76-.05-.17-.12-.34-.18-.52-.15-.44-.32-.88-.52-1.33-.08-.19-.16-.37-.25-.56-.26-.56-.54-1.11-.86-1.67-.03-.05-.05-.11-.09-.16-.35-.61-.76-1.22-1.19-1.83-.13-.18-.26-.35-.39-.53-.34-.46-.71-.92-1.1-1.39-.16-.19-.31-.37-.47-.56-.53-.6-1.08-1.19-1.68-1.79-.02-.03-.05-.05-.07-.08-.63-.62-1.32-1.24-2.03-1.86-.21-.18-.43-.36-.65-.54-.55-.46-1.13-.92-1.73-1.39-.24-.19-.48-.37-.73-.55-.84-.62-1.71-1.24-2.64-1.86h0c-.57-.38-1.17-.75-1.8-1.12-.19-.12-.4-.23-.6-.34-.45-.26-.91-.52-1.39-.78-.24-.13-.48-.26-.73-.38-.48-.25-.96-.5-1.45-.75-.26-.13-.51-.25-.77-.37-.55-.27-1.11-.52-1.68-.78-.23-.1-.45-.21-.68-.31-.7-.31-1.43-.62-2.17-.93-.12-.05-.23-.1-.34-.14-18.46-7.55-49.01-13.76-86.35-13.76-47.83,0-106.77,10.18-165.65,40.77-1.42-5.42-3.65-10.6-6.64-15.33,2.31-1.52,4.66-3.11,7-4.76,16.65-11.67,32.56-27.84,38.77-49.99,7.6-27.07-17.63-45.47-18.32-45.96,21.34,25.65,6.14,43.42,6.14,43.42-3.43-13.74-14.99-16.52-14.99-16.52,13.74,10.76,13,45.58-21.71,69.41-5.88-7.53-13.83-13.59-23.42-17.23-6.32-2.4-12.81-3.54-19.19-3.54-3.29,0-6.56.3-9.76.89-.03-.12-.05-.23-.07-.35-1.67.38-3.45.6-5.38.6h-.04c.08.33.16.67.25.99-5.38,1.55-10.49,3.95-15.14,7.06-42.29-110.32-127.67-172.38-170.6-187.42-.12-.05-.23-.08-.35-.12-.75-.27-1.5-.51-2.23-.75-.24-.08-.48-.14-.71-.22-.6-.19-1.19-.37-1.77-.53-.28-.08-.55-.16-.82-.23-.53-.14-1.06-.28-1.58-.41-.27-.07-.54-.14-.8-.2-.53-.12-1.05-.23-1.56-.34-.23-.05-.45-.1-.68-.14-.71-.14-1.41-.26-2.08-.35h0c-1.11-.16-2.17-.27-3.22-.37-.31-.03-.61-.05-.91-.07-.76-.06-1.5-.1-2.22-.12-.28-.01-.57-.02-.84-.02-.24,0-.46,0-.7,0-.71,0-1.4.01-2.06.05-.03,0-.07.01-.1.01-.85.05-1.66.13-2.45.23-.24.03-.48.06-.72.1-.6.09-1.18.19-1.74.31-.21.05-.43.09-.64.14-.73.17-1.44.36-2.12.57-.06.02-.11.05-.17.06-.61.2-1.19.43-1.76.67-.19.08-.37.17-.55.26-.44.21-.86.42-1.28.66-.16.09-.32.17-.48.27-.53.32-1.03.65-1.51,1-.07.05-.13.11-.2.17-.4.31-.78.64-1.14.97-.14.13-.27.26-.41.39-.29.29-.56.59-.82.89-.12.13-.23.27-.34.4-.34.43-.66.86-.95,1.32-.07.1-.13.21-.19.32-.22.37-.43.73-.62,1.11-.09.18-.17.37-.26.55-.15.33-.29.67-.42,1.01-.07.18-.14.37-.21.55-.17.49-.32.99-.45,1.5-.05.17-.08.35-.11.53-.08.36-.16.73-.21,1.1-.04.23-.07.47-.1.71-.04.33-.08.67-.1,1-.02.24-.04.48-.05.72-.02.52-.03,1.04-.02,1.57,0,.25.02.5.03.75.02.32.03.65.07.98.02.28.06.57.09.86.04.3.08.6.13.9.05.29.09.57.14.86.09.48.2.96.31,1.44.08.33.17.66.27.99.08.28.15.56.24.83.1.31.2.63.31.94.09.27.19.53.28.79.12.31.23.61.35.92.16.41.34.81.52,1.21,2.39,5.27,6.17,10.09,10.85,13.31,1.04.71,2.2,1.48,3.44,2.28-21.42,4.14-16.06,30.1-1.76,39.95,2.14,1.48,4.82,3.14,7.95,5.01-.84-.05-1.66-.07-2.45-.07-28.59,0-23.61,29.78-8.06,40.5,2.95,2.03,6.82,4.1,11.44,6.36-18.31,4.13-13.45,26.87-.84,35.56,12.07,8.32,42.36,14.6,76.59,33.93-8.61-1.97-17.68-3.08-27.17-3.08s-19.2,1.09-29.41,3.52c-47.92,11.41-35.56,33.88-6.34,54.51-1.25,14.76,28.67,32.88,42.09,38.82,13.82,6.11,42.04,12.51,66.69,12.51,3.7,0,7.32-.14,10.8-.46-3.46,4.4-6.33,9.39-8.42,14.9-4.08,10.74-3.46,18.82.39,25.3-3.35,4.07-6.12,8.74-8.09,13.95-4.14,10.9-2.78,18.69,2.1,24.79-1.11,1.56-2.13,3.18-3.03,4.92t0,0c-.68,1.34-1.32,2.71-1.86,4.14-4.42,11.65-1.12,18.91,6.29,24.44-8.31,3.81-15.18,10.75-18.68,19.97-7.08,18.64-13.4,80.83,5.23,87.9,1.2.46,2.48.67,3.81.67,19.41,0,51.82-45.53,58.43-62.96,3.5-9.22,2.97-18.97-.72-27.34.86.08,1.69.12,2.52.12,8.03,0,14.4-3.65,18.41-14.22,1.25-3.3,1.99-6.67,2.35-10.03,7.7-1.32,13.88-6.24,18.03-17.15,1.97-5.21,3-10.53,3.19-15.8,7.18-2.28,13.01-7.92,17.09-18.66,2.09-5.51,3.26-11.14,3.58-16.73,18.36,19.47,49.42,37.11,65.98,42.41,8.01,2.56,22.72,5.72,35.5,5.72,9.52,0,17.97-1.76,21.75-6.83,5.05.56,9.87.87,14.34.87,27.01,0,41.35-11.25,17.09-45.86-12.1-17.27-26.62-29.43-42.04-37.87,38.44,8.24,65.26,23.65,79.81,25.43.93.12,1.88.17,2.83.17,14.55,0,30.41-13.02,20.14-27.33,4.96,1.38,9.23,2.39,12.79,2.83,1.04.13,2.1.19,3.16.19,18.59,0,39.04-18.98,15.8-37.41,3.58.68,6.68,1.21,9.27,1.52,1.05.13,2.1.19,3.17.19,16.51,0,34.49-14.98,22.02-31.24,1.47.22,2.83.42,4.09.57,1.13.14,2.27.2,3.42.2,4.62,0,9.35-1.09,13.59-3,.38-.17.76-.34,1.13-.53.3-.14.59-.3.88-.46.25-.13.5-.27.74-.41.28-.16.57-.32.85-.49.25-.15.49-.31.74-.47.29-.19.58-.37.86-.57.41-.28.81-.57,1.19-.87.23-.18.45-.37.68-.55.23-.19.46-.39.7-.59.21-.19.43-.38.64-.58.24-.23.47-.46.7-.69.17-.18.35-.35.52-.53.36-.38.7-.78,1.03-1.18.15-.19.29-.38.43-.57.2-.27.4-.54.59-.81.14-.2.27-.4.4-.6.2-.31.39-.64.57-.96.09-.16.19-.32.27-.48.24-.46.46-.94.66-1.42.08-.18.14-.37.21-.55.13-.34.25-.68.35-1.03.06-.2.12-.39.17-.59.11-.41.2-.83.28-1.25.02-.12.05-.24.07-.37.08-.53.13-1.07.16-1.61.01-.17,0-.35.01-.53,0-.4,0-.81-.02-1.22Zm-8.8,1.3v.05c-.01.19-.02.36-.05.51-.02.1-.04.2-.06.3-.03.21-.08.39-.12.56-.02.09-.05.17-.08.28-.05.14-.1.3-.17.48l-.08.22-.03.09c-.1.23-.19.43-.28.61h0c-.07.12-.13.23-.19.33-.12.21-.23.39-.31.53-.07.12-.15.23-.24.36-.09.13-.2.28-.32.45l-.02.02v.02s-.12.14-.12.14c-.05.06-.09.13-.14.19-.21.27-.42.5-.61.71l-.12.12c-.08.08-.16.16-.23.23-.15.15-.3.3-.45.45-.14.13-.28.26-.43.39-.16.14-.31.27-.47.4l-.18.15c-.1.08-.19.16-.28.23-.27.21-.55.41-.85.63-.17.12-.35.23-.53.35l-.07.04c-.18.12-.36.23-.53.34-.2.13-.41.24-.62.37-.17.1-.35.19-.54.3l-.15.08c-.17.09-.33.17-.49.26-.24.12-.54.26-.83.39-3.19,1.43-6.73,2.22-9.98,2.22-.8,0-1.59-.05-2.34-.14-1.08-.13-2.34-.31-3.84-.54l-21.67-3.3,13.34,17.4c3.16,4.13,2.46,6.79,1.65,8.43-2.35,4.76-9.82,8.63-16.66,8.63-.71,0-1.42-.04-2.09-.13-2.13-.26-4.9-.72-8.71-1.44l-35.16-6.64,28.04,22.23c3.91,3.1,8.25,7.74,6.7,12.21-1.76,5.04-9.71,9.46-17.02,9.46-.71,0-1.41-.04-2.09-.13-2.74-.34-6.39-1.15-11.49-2.57l-24.16-6.72,14.63,20.37c2.19,3.05,1.76,4.87,1.06,6.25-2.01,3.92-8.3,7.1-14.03,7.1-.6,0-1.19-.03-1.76-.1-5.21-.64-13.73-3.93-23.59-7.74-14.68-5.67-32.94-12.73-55.44-17.56l-59.18-12.69,53.1,29.06c15.48,8.47,28.62,20.32,39.05,35.2,10.16,14.5,11.94,23.19,10.22,26.5-1.78,3.42-9.29,5.47-20.08,5.47-4.01,0-8.5-.28-13.37-.82l-5.03-.56-3.02,4.05c-.91,1.22-5.03,3.28-14.68,3.28-11.15,0-24.83-2.75-32.81-5.3-14.69-4.7-44.49-21.23-62.24-40.05l-14.03-14.89-1.19,20.42c-.28,4.82-1.3,9.56-3.03,14.11-3.77,9.91-8.38,12.39-11.52,13.39l-5.91,1.88-.23,6.2c-.16,4.46-1.05,8.83-2.63,13-3.45,9.09-7.63,10.96-11.27,11.59l-6.57,1.13-.71,6.63c-.3,2.78-.92,5.41-1.83,7.83-1.29,3.4-2.85,5.77-4.61,7.05-.88.64-2.41,1.48-5.55,1.48-.56,0-1.15-.02-1.76-.08l-14.82-1.26,5.99,13.61c2.9,6.6,3.1,13.93.54,20.65-2.72,7.18-11.69,22.05-22.94,35.49-14.4,17.19-23.9,21.78-27.25,21.78-.28,0-.51-.03-.68-.1-1.76-.67-6.74-7.85-6.56-31.3.13-18.02,3.38-37.14,6.45-45.22,2.55-6.72,7.56-12.08,14.11-15.09l13.51-6.21-11.92-8.89c-4.41-3.29-6.24-6.53-3.32-14.23.35-.93.78-1.88,1.29-2.9l1.15-1.81v-.27c.42-.68.88-1.37,1.39-2.1l3.87-5.43-4.17-5.21c-2.3-2.88-4.19-7.05-.74-16.14,1.58-4.17,3.82-8.02,6.65-11.47l3.94-4.79-3.17-5.33c-1.69-2.83-3.49-7.74.27-17.65,1.73-4.55,4.12-8.78,7.1-12.57l12.66-16.07-20.37,1.82c-3.12.28-6.49.42-10.02.42-22.87,0-50.05-5.98-63.12-11.76-6.47-2.86-16.61-8.6-24.65-14.95-9.99-7.89-12.38-13.18-12.22-15.05l.43-5.04-4.13-2.92c-8.06-5.69-14.07-11.02-17.87-15.85-3.09-3.92-4.55-7.33-4.12-9.6.71-3.67,7.72-9.08,25.28-13.26,9.14-2.18,18.35-3.29,27.37-3.29,8.42,0,16.9.97,25.2,2.86l59.01,13.49-52.71-29.78c-20.03-11.32-38.38-18.16-53.12-23.66-9.91-3.69-18.47-6.89-22.79-9.86-4.8-3.3-8.19-10.45-7.26-15.3.32-1.68,1.18-3.52,5.03-4.39l24.46-5.53-22.53-11.01c-4.76-2.32-8.03-4.14-10.31-5.7-6.14-4.23-10.1-13.31-8.32-19.06.47-1.5,1.3-2.59,2.61-3.43,1.97-1.26,4.99-1.92,8.75-1.92.63,0,1.29.02,1.97.06l35.72,1.98-30.71-18.36c-3.32-1.98-5.69-3.48-7.47-4.7-5.85-4.03-9.74-12.4-8.51-18.29.45-2.13,1.63-4.7,6.94-5.72l21.52-4.16-18.4-11.92c-1.29-.83-2.35-1.54-3.23-2.14-3.17-2.18-6.02-5.71-7.8-9.66-.13-.29-.28-.63-.41-.93-.06-.15-.12-.3-.17-.46l-.08-.2c-.07-.19-.14-.38-.2-.57h0s0-.03,0-.03c-.08-.22-.14-.44-.22-.67-.06-.2-.11-.39-.16-.59v-.02s-.01-.01-.01-.01c-.06-.23-.13-.46-.19-.7-.08-.32-.14-.65-.21-.97-.03-.16-.05-.31-.08-.47l-.02-.13c-.03-.2-.06-.41-.09-.6v-.03s0-.03,0-.03c-.02-.18-.05-.35-.06-.55-.02-.21-.03-.42-.04-.63v-.28c-.02-.08-.02-.14-.03-.21,0-.31,0-.63.01-.95,0-.08.01-.15.02-.22l.02-.23c.02-.2.03-.4.06-.59.02-.13.03-.27.06-.41.02-.15.06-.34.12-.61.02-.12.05-.25.08-.37.05-.2.12-.4.2-.64l.03-.08.09-.21c.06-.17.13-.34.2-.47.04-.09.08-.18.13-.28.08-.14.17-.31.27-.48v-.02s.02-.02.02-.02c.05-.08.09-.16.14-.24.09-.13.19-.26.31-.41l.02-.03.18-.2c.1-.13.23-.26.35-.39.06-.06.12-.12.19-.18.17-.16.34-.31.52-.45.07-.05.14-.1.21-.16.17-.12.37-.25.6-.39l.07-.04.23-.12c.21-.12.45-.24.68-.35l.09-.04c.08-.03.15-.08.23-.1.37-.16.71-.29,1.04-.4.09-.03.17-.06.25-.09.35-.1.76-.21,1.25-.33.07-.01.13-.02.2-.04l.24-.05c.39-.08.8-.16,1.23-.22l.14-.02c.13-.02.25-.03.37-.05.67-.08,1.27-.14,1.82-.17.08,0,.14-.01.22-.01.44-.02.93-.03,1.48-.03.2,0,.39,0,.58,0,.14,0,.28,0,.42.01h.27c.6.02,1.22.06,1.84.1l.24.02c.17.01.34.02.53.04,1.03.09,1.91.19,2.76.31h.08c.48.08,1,.17,1.61.28.08.02.16.03.23.05l.33.07c.53.11.94.2,1.31.28.16.04.32.08.49.12l.21.06c.5.12.94.24,1.39.35.24.07.48.13.72.2.48.14,1,.3,1.58.48l.17.05c.16.05.31.1.47.15.64.2,1.3.42,2.04.68l.19.06.09.03h.01s.02.01.02.01c7.54,2.64,20.07,8.12,36.89,19.17,15.55,10.21,30.82,22.59,45.41,36.81,16.82,16.39,32.11,34.69,45.45,54.36,15.2,22.42,27.83,46.62,37.53,71.92l3.96,10.32,9.19-6.15c3.93-2.63,8.2-4.61,12.69-5.91l2.18-.63,2.21-.41c2.69-.5,5.44-.75,8.16-.75,5.48,0,10.89,1,16.06,2.96,7.74,2.94,14.52,7.93,19.59,14.42l1.38,1.77,1.22,1.92c2.5,3.95,4.37,8.27,5.56,12.84l2.79,10.69,9.81-5.1c63.29-32.88,122.8-39.78,161.58-39.78,31.93,0,62.96,4.9,83,13.11l.08.03c.09.03.17.07.27.11.68.28,1.33.56,1.93.82.14.06.29.13.43.2l.19.08c.53.24,1.03.48,1.5.7.22.11.45.21.68.34.38.19.79.39,1.26.64l.21.11c.14.08.28.15.41.22.42.23.84.47,1.17.66.1.06.21.12.31.19.07.03.14.08.19.1.5.3.93.57,1.32.82l.14.1c.71.46,1.43.97,2.28,1.6.14.1.28.21.43.32l.17.13c.5.38.99.77,1.44,1.15l.2.17c.11.09.22.18.32.27.6.52,1.1.98,1.53,1.39.05.06.1.11.16.16.4.39.81.83,1.25,1.33.09.1.17.2.26.31l.1.11c.27.32.53.65.75.95l.18.24s.07.09.1.14c.29.41.52.76.71,1.08.04.08.08.15.13.23.18.31.35.64.52,1,.03.07.06.13.09.2l.04.1c.11.24.2.49.29.74.03.08.06.17.09.25l.02.06c.08.26.14.49.19.68.02.09.03.17.05.26.04.22.07.44.09.66,0,.09.01.17.02.27.01.18.01.36.01.55v.24Z"/>
  <path class="cls-1" d="m1201.53,821.44v.24s0,.05,0,.05c-.01.19-.02.36-.05.51-.02.1-.04.2-.06.3-.03.21-.08.39-.12.56-.02.09-.05.17-.08.28-.05.14-.1.3-.17.48l-.08.22-.03.09c-.1.23-.19.43-.28.61h0c-.07.12-.13.23-.19.33-.12.21-.23.39-.31.53-.07.12-.15.23-.24.36-.09.13-.2.28-.32.45l-.02.02v.02s-.12.14-.12.14c-.05.06-.09.13-.14.19-.21.27-.42.5-.61.71l-.12.12c-.08.08-.16.16-.23.23-.15.15-.3.3-.45.45-.14.13-.28.26-.43.39-.16.14-.31.27-.47.4l-.18.15c-.1.08-.19.16-.28.23-.27.21-.55.41-.85.63-.17.12-.35.23-.53.35l-.07.04c-.18.12-.36.23-.53.34-.2.13-.41.24-.62.37-.17.1-.35.19-.54.3l-.15.08c-.17.09-.33.17-.49.26-.24.12-.54.26-.83.39-3.19,1.43-6.73,2.22-9.98,2.22-.8,0-1.59-.05-2.34-.14-1.08-.13-2.34-.31-3.84-.54l-21.67-3.3,13.34,17.4c3.16,4.13,2.46,6.79,1.65,8.43-2.35,4.76-9.82,8.63-16.66,8.63-.71,0-1.42-.04-2.09-.13-2.13-.26-4.9-.72-8.71-1.44l-35.16-6.64,28.04,22.23c3.91,3.1,8.25,7.74,6.7,12.21-1.76,5.04-9.71,9.46-17.02,9.46-.71,0-1.41-.04-2.09-.13-2.74-.34-6.39-1.15-11.49-2.57l-24.16-6.72,14.63,20.37c2.19,3.05,1.76,4.87,1.06,6.25-2.01,3.92-8.3,7.1-14.03,7.1-.6,0-1.19-.03-1.76-.1-5.21-.64-13.73-3.93-23.59-7.74-14.68-5.67-32.94-12.73-55.44-17.56l-59.18-12.69,53.1,29.06c15.48,8.47,28.62,20.32,39.05,35.2,10.16,14.5,11.94,23.19,10.22,26.5-1.78,3.42-9.29,5.47-20.08,5.47-4.01,0-8.5-.28-13.37-.82l-5.03-.56-3.02,4.05c-.91,1.22-5.03,3.28-14.68,3.28-11.15,0-24.83-2.75-32.81-5.3-14.69-4.7-44.49-21.23-62.24-40.05l-14.03-14.89-1.19,20.42c-.28,4.82-1.3,9.56-3.03,14.11-3.77,9.91-8.38,12.39-11.52,13.39l-5.91,1.88-.23,6.2c-.16,4.46-1.05,8.83-2.63,13-3.45,9.09-7.63,10.96-11.27,11.59l-6.57,1.13-.71,6.63c-.3,2.78-.92,5.41-1.83,7.83-1.29,3.4-2.85,5.77-4.61,7.05-.88.64-2.41,1.48-5.55,1.48-.56,0-1.15-.02-1.76-.08l-14.82-1.26,5.99,13.61c2.9,6.6,3.1,13.93.54,20.65-2.72,7.18-11.69,22.05-22.94,35.49-14.4,17.19-23.9,21.78-27.25,21.78-.28,0-.51-.03-.68-.1-1.76-.67-6.74-7.85-6.56-31.3.13-18.02,3.38-37.14,6.45-45.22,2.55-6.72,7.56-12.08,14.11-15.09l13.51-6.21-11.92-8.89c-4.41-3.29-6.24-6.53-3.32-14.23.35-.93.78-1.88,1.29-2.9l1.15-1.81v-.27c.42-.68.88-1.37,1.39-2.1l3.87-5.43-4.17-5.21c-2.3-2.88-4.19-7.05-.74-16.14,1.58-4.17,3.82-8.02,6.65-11.47l3.94-4.79-3.17-5.33c-1.69-2.83-3.49-7.74.27-17.65,1.73-4.55,4.12-8.78,7.1-12.57l12.66-16.07-20.37,1.82c-3.12.28-6.49.42-10.02.42-22.87,0-50.05-5.98-63.12-11.76-6.47-2.86-16.61-8.6-24.65-14.95-9.99-7.89-12.38-13.18-12.22-15.05l.43-5.04-4.13-2.92c-8.06-5.69-14.07-11.02-17.87-15.85-3.09-3.92-4.55-7.33-4.12-9.6.71-3.67,7.72-9.08,25.28-13.26,9.14-2.18,18.35-3.29,27.37-3.29,8.42,0,16.9.97,25.2,2.86l59.01,13.49-52.71-29.78c-20.03-11.32-38.38-18.16-53.12-23.66-9.91-3.69-18.47-6.89-22.79-9.86-4.8-3.3-8.19-10.45-7.26-15.3.32-1.68,1.18-3.52,5.03-4.39l24.46-5.53-22.53-11.01c-4.76-2.32-8.03-4.14-10.31-5.7-6.14-4.23-10.1-13.31-8.32-19.06.47-1.5,1.3-2.59,2.61-3.43,1.97-1.26,4.99-1.92,8.75-1.92.63,0,1.29.02,1.97.06l35.72,1.98-30.71-18.36c-3.32-1.98-5.69-3.48-7.47-4.7-5.85-4.03-9.74-12.4-8.51-18.29.45-2.13,1.63-4.7,6.94-5.72l21.52-4.16-18.4-11.92c-1.29-.83-2.35-1.54-3.23-2.14-3.17-2.18-6.02-5.71-7.8-9.66-.13-.29-.28-.63-.41-.93-.06-.15-.12-.3-.17-.46l-.08-.2c-.07-.19-.14-.38-.2-.57h0s0-.03,0-.03c-.08-.22-.14-.44-.22-.67-.06-.2-.11-.39-.16-.59v-.02s-.01-.01-.01-.01c-.06-.23-.13-.46-.19-.7-.08-.32-.14-.65-.21-.97-.03-.16-.05-.31-.08-.47l-.02-.13c-.03-.2-.06-.41-.09-.6v-.03s0-.03,0-.03c-.02-.18-.05-.35-.06-.55-.02-.21-.03-.42-.04-.63v-.28c-.02-.08-.02-.14-.03-.21,0-.31,0-.63.01-.95,0-.08.01-.15.02-.22l.02-.23c.02-.2.03-.4.06-.59.02-.13.03-.27.06-.41.02-.15.06-.34.12-.61.02-.12.05-.25.08-.37.05-.2.12-.4.2-.64l.03-.08.09-.21c.06-.17.13-.34.2-.47.04-.09.08-.18.13-.28.08-.14.17-.31.27-.48v-.02s.02-.02.02-.02c.05-.08.09-.16.14-.24.09-.13.19-.26.31-.41l.02-.03.18-.2c.1-.13.23-.26.35-.39.06-.06.12-.12.19-.18.17-.16.34-.31.52-.45.07-.05.14-.1.21-.16.17-.12.37-.25.6-.39l.07-.04.23-.12c.21-.12.45-.24.68-.35l.09-.04c.08-.03.15-.08.23-.1.37-.16.71-.29,1.04-.4.09-.03.17-.06.25-.09.35-.1.76-.21,1.25-.33.07-.01.13-.02.2-.04l.24-.05c.39-.08.8-.16,1.23-.22l.14-.02c.13-.02.25-.03.37-.05.67-.08,1.27-.14,1.82-.17.08,0,.14-.01.22-.01.44-.02.93-.03,1.48-.03.2,0,.39,0,.58,0,.14,0,.28,0,.42.01h.27c.6.02,1.22.06,1.84.1l.24.02c.17.01.34.02.53.04,1.03.09,1.91.19,2.76.31h.08c.48.08,1,.17,1.61.28.08.02.16.03.23.05l.33.07c.53.11.94.2,1.31.28.16.04.32.08.49.12l.21.06c.5.12.94.24,1.39.35.24.07.48.13.72.2.48.14,1,.3,1.58.48l.17.05c.16.05.31.1.47.15.64.2,1.3.42,2.04.68l.19.06.09.03h.01s.02.01.02.01c7.54,2.64,20.07,8.12,36.89,19.17,15.55,10.21,30.82,22.59,45.41,36.81,16.82,16.39,32.11,34.69,45.45,54.36,15.2,22.42,27.83,46.62,37.53,71.92l3.96,10.32,9.19-6.15c3.93-2.63,8.2-4.61,12.69-5.91l2.18-.63,2.21-.41c2.69-.5,5.44-.75,8.16-.75,5.48,0,10.89,1,16.06,2.96,7.74,2.94,14.52,7.93,19.59,14.42l1.38,1.77,1.22,1.92c2.5,3.95,4.37,8.27,5.56,12.84l2.79,10.69,9.81-5.1c63.29-32.88,122.8-39.78,161.58-39.78,31.93,0,62.96,4.9,83,13.11l.08.03c.09.03.17.07.27.11.68.28,1.33.56,1.93.82.14.06.29.13.43.2l.19.08c.53.24,1.03.48,1.5.7.22.11.45.21.68.34.38.19.79.39,1.26.64l.21.11c.14.08.28.15.41.22.42.23.84.47,1.17.66.1.06.21.12.31.19.07.03.14.08.19.1.5.3.93.57,1.32.82l.14.1c.71.46,1.43.97,2.28,1.6.14.1.28.21.43.32l.17.13c.5.38.99.77,1.44,1.15l.2.17c.11.09.22.18.32.27.6.52,1.1.98,1.53,1.39.05.06.1.11.16.16.4.39.81.83,1.25,1.33.09.1.17.2.26.31l.1.11c.27.32.53.65.75.95l.18.24s.07.09.1.14c.29.41.52.76.71,1.08.04.08.08.15.13.23.18.31.35.64.52,1,.03.07.06.13.09.2l.04.1c.11.24.2.49.29.74.03.08.06.17.09.25l.02.06c.08.26.14.49.19.68.02.09.03.17.05.26.04.22.07.44.09.66,0,.09.01.17.02.27.01.18.01.36.01.55Z"/>
  <g>
    <path class="cls-2" d="m432.15,564.35v311.2h105.81v-123.39h109.81c-.48-7.25,2.91-13.9,12.02-15.97-4.61-2.27-8.5-4.34-11.45-6.36-15.97-11.02-20.78-42.18,10.52-40.43-3.11-1.89-5.79-3.54-7.95-5.02-1.41-.98-2.73-2.09-3.93-3.34h-109.01v-46h104.06c-1.43-1.93-2.66-4.02-3.63-6.2-.18-.39-.36-.79-.52-1.2-.11-.32-.23-.61-.34-.93-.11-.25-.2-.52-.3-.8-.11-.3-.2-.61-.3-.93-.09-.27-.18-.57-.25-.84-.09-.32-.18-.66-.27-1-.11-.48-.2-.95-.32-1.43-.05-.3-.09-.57-.14-.86s-.09-.59-.11-.91c-.05-.27-.07-.57-.11-.84-.02-.34-.05-.66-.07-.98,0-.25-.02-.5-.02-.75-.02-.55,0-1.04.02-1.57,0-.25.02-.48.05-.73.02-.34.05-.66.09-1,.05-.23.07-.48.11-.7.05-.36.11-.73.2-1.09.05-.18.07-.36.11-.55.14-.5.27-1,.45-1.5.05-.18.14-.36.2-.55.14-.34.27-.68.41-1,.09-.2.18-.39.27-.57.18-.36.39-.75.61-1.11.07-.09.14-.2.18-.32.3-.45.61-.89.95-1.32.11-.14.23-.25.34-.39.27-.32.55-.61.84-.91.11-.14.25-.25.39-.39.36-.34.75-.66,1.16-.98.07-.05.11-.11.18-.16.48-.36,1-.7,1.52-1,.16-.11.32-.18.48-.27.41-.23.84-.45,1.27-.66.18-.09.36-.18.55-.25.57-.25,1.16-.48,1.77-.68.05-.02.09-.05.16-.07.68-.2,1.39-.39,2.11-.57.2-.05.43-.09.64-.14.57-.11,1.16-.23,1.75-.3.23-.05.48-.09.73-.11.77-.09,1.59-.18,2.43-.23h.11c.89-.05,1.79-.07,2.75-.05.27,0,.57,0,.84.02.73.02,1.48.05,2.23.11.3.02.61.05.91.07,1.04.09,2.11.2,3.23.36.66.09,1.36.23,2.09.36.2.02.45.09.66.14.52.09,1.04.2,1.57.34.27.05.55.11.8.18.52.14,1.04.27,1.59.41.27.07.55.16.82.23.59.18,1.18.34,1.77.55.25.07.48.14.73.2.73.25,1.48.5,2.23.75.11.05.23.09.36.11,14.95,5.25,35.1,16.22,56.77,32.96h47.77v-70.69h-350.68Z"/>
    <path class="cls-2" d="m819.09,649.7v79.55c11.22,18.17,21.37,38.28,29.8,60.29,4.66-3.13,9.77-5.52,15.13-7.06-.7-2.68-1.41-5.43-2.07-8.22-4.72-19.76-5.88-42.43,4.16-63.13,12.45-25.65,44.23-22.22,44.23-22.22-33.01,5.02-33.44,28.39-33.44,28.39,11.7-8,22.19-2.41,22.19-2.41-17.42-1.07-39.98,25.49-29.83,66.33,9.4-1.73,19.38-1,28.96,2.66,9.09,3.45,16.7,9.06,22.49,16.06v-150.24h-101.63Zm0-86.09v64.38h101.63v-64.38h-101.63Z"/>
    <path class="cls-2" d="m1154.84,638.27c-17.47,0-33.46,3.13-47.93,9.43-14.45,6.25-24.69,12.38-30.71,18.38-6.02,6-11.02,11.99-15.04,17.97v-40.64h-94.97v77.16c4.57,7.81,7.7,18.15,4.32,30.19-1.14,4.04-2.59,7.9-4.32,11.54v42.75c33.35-13.11,65.97-20.19,95.84-23.22v-27.19c0-15.67,4.43-28.87,13.31-39.57,8.88-10.7,26.4-20.9,38.07-22.28,11.68-1.36,147.22-1.14,147.22-1.14v-53.38h-105.79Z"/>
    <path class="cls-2" d="m1494.64,865.63c0-81.57-56.81-122.37-170.43-122.37h-27.78c-31.91,0-59.33,3.18-82.25,9.5-22.94,6.34-40.57,15.06-52.86,26.17-2.39,2.16-4.66,4.34-6.77,6.56,11.43,2.32,21.17,5.2,28.83,8.34.11.05.23.09.34.14.75.32,1.48.61,2.18.93.23.11.45.2.68.32.57.25,1.11.52,1.66.77.27.14.52.25.77.39.5.23.98.48,1.45.73.25.14.5.27.73.39.5.27.95.52,1.41.79.18.11.39.23.59.34.61.36,1.23.75,1.79,1.11.93.64,1.82,1.25,2.66,1.86.25.18.48.36.73.55.59.48,1.18.93,1.73,1.41.23.16.43.34.66.52.7.64,1.39,1.25,2.02,1.86.02.05.05.07.07.09.61.59,1.16,1.18,1.68,1.79.16.18.32.36.48.55.39.45.75.93,1.09,1.39.14.18.27.34.39.52.45.61.84,1.23,1.2,1.84.05.05.07.11.09.16.32.57.61,1.11.86,1.66.09.2.16.39.25.57.18.45.36.89.52,1.34.05.16.11.34.18.5.18.59.34,1.18.45,1.75.02.09.02.18.05.27.09.5.16,1,.2,1.48.02.2.02.39.05.57.02.41.02.82.02,1.23,0,.16,0,.34-.02.52-.02.55-.07,1.07-.16,1.61-.02.11-.05.23-.07.36-.09.41-.18.84-.27,1.25-.07.18-.11.39-.18.57-.09.36-.23.7-.34,1.04-.07.18-.14.36-.23.55-.18.48-.41.95-.66,1.43-.07.16-.16.3-.25.45-.18.34-.39.66-.57.98-.14.2-.27.39-.41.59-.18.27-.39.55-.59.82-.14.18-.27.39-.43.57-.32.41-.66.79-1.02,1.18-.18.18-.34.36-.52.52-.23.25-.45.48-.7.7-.2.18-.43.39-.64.57-.23.2-.45.41-.7.59-.23.18-.43.39-.68.55-.39.32-.77.59-1.18.89-.27.18-.57.39-.86.57-.25.16-.48.32-.73.45-.3.18-.57.34-.86.5-.23.14-.48.27-.73.41-.3.16-.59.32-.89.45-.36.18-.75.36-1.11.52-5.32,2.39-11.36,3.5-17.01,2.79-1.27-.16-2.64-.34-4.09-.57,13.27,17.31-7.97,33.16-25.19,31.05-2.59-.32-5.7-.84-9.27-1.52,19.04,15.08,8.77,30.55-5.79,35.66.36.89.75,1.77,1.14,2.66,5.93,13.2,15.26,25.44,28.03,36.71,12.77,11.24,30.69,20.04,53.77,26.35,23.1,6.34,50.43,9.49,82.03,9.49h25.96c27.96,0,52.49-2.04,73.6-6.11,21.13-4.09,37.43-9.13,49-15.2,11.54-6.04,20.94-13.15,28.24-21.31,7.29-8.15,12.02-15.67,14.13-22.56,2.14-6.91,3.2-13.86,3.2-20.9v-.41h-100.27c-.3,1.68-1.04,3.43-2.27,5.27-1.2,1.82-3.57,4.2-7.06,7.18-3.5,2.95-7.97,5.61-13.45,8.02-5.45,2.38-13.13,4.41-23.01,6.11-9.86,1.68-21.17,2.52-33.94,2.52h-.45c-51.04,0-79.91-14.77-86.59-44.29h268.41v-15.61Zm-266.59-31.23c8.22-25.6,35.41-38.39,81.57-38.39h.45c47.41,0,74.73,12.79,82.03,38.39h-164.05Z"/>
    <path class="cls-2" d="m776.09,965.64c1.98-5.2,4.75-9.88,8.09-13.95-1.84-3.11-2.93-6.56-3.13-10.52h-347.25v311.2h105.79v-123.39h222.45c-10.79-11.4-9.18-48.16-4.77-71.1h-217.68v-46.02h231.92c-.55-3.5-.05-7.56,1.79-12.38.55-1.43,1.18-2.79,1.86-4.13.91-1.75,1.93-3.36,3.02-4.93-4.88-6.09-6.22-13.88-2.09-24.78Z"/>
    <path class="cls-2" d="m892.84,949.7c-.34,5.59-1.5,11.22-3.59,16.74-4.09,10.74-9.9,16.38-17.08,18.65-.2,5.27-1.23,10.61-3.2,15.81-4.13,10.9-10.31,15.83-18.01,17.15-.36,3.36-1.11,6.72-2.36,10.02-4.43,11.65-11.72,14.9-20.92,14.13,3.68,8.36,4.2,18.1.7,27.33-1.45,3.82-4.13,9-7.66,14.77v167.12h101.61v-277.85c-10.74-6.97-21.35-15.24-29.48-23.85Z"/>
    <path class="cls-2" d="m1206.09,1033.11l-74.96,161.71-77.19-161.71h-107.08l114.67,218.57c7.45,14.22,11.15,22.65,11.15,25.33,0,5.02-3.86,7.54-11.58,7.54H433.79v71.1h658.09c20.81,0,37.78-5.34,50.86-15.99,13.08-10.68,25.58-27.85,37.48-51.54l125.82-255h-99.95Z"/>
  </g>
  <path class="cls-2" d="m1523.04,529.16v861.68H396.96v-861.68h1126.09m17.77-17.77H379.19v897.22h1161.63V511.39h0Z"/>
  <g>
    <path class="cls-2" d="m1250.66,1295.58c10.94,0,19.84,8.9,19.84,19.84s-8.9,19.84-19.84,19.84-19.84-8.9-19.84-19.84,8.9-19.84,19.84-19.84m0-2.76c-12.48,0-22.6,10.12-22.6,22.6s10.12,22.6,22.6,22.6,22.6-10.12,22.6-22.6-10.12-22.6-22.6-22.6h0Z"/>
    <path class="cls-2" d="m1246.13,1318.7v8.9h-3.75v-24.36h10.31c1.09,0,2.12.19,3.09.58.97.39,1.81.93,2.53,1.62.72.69,1.29,1.51,1.71,2.46.42.95.63,1.97.63,3.07,0,1-.17,1.9-.49,2.72-.33.81-.76,1.54-1.31,2.18-.55.64-1.16,1.19-1.85,1.64-.69.45-1.4.79-2.15,1.01l6.98,9.09h-4.73l-6.84-8.9h-4.12Zm9.54-4.87c.83-.75,1.24-1.7,1.24-2.86s-.41-2.11-1.24-2.86c-.83-.75-1.82-1.13-2.97-1.13h-6.56v7.97h6.56c1.15,0,2.15-.37,2.97-1.12Z"/>
  </g>
</svg>